<svg width="1584" height="396" viewBox="0 0 1584 396" fill="none" xmlns="http://www.w3.org/2000/svg">
<g clip-path="url(#clip0_5_13)">
<rect width="1584" height="396" rx="8" fill="#18181B"/>
<g opacity="0.2" clip-path="url(#clip1_5_13)">
<path d="M1188 -25.2152H990L1188 86.1772V-25.2152Z" stroke="#7DD421" stroke-width="1.67089" stroke-linejoin="round"/>
<path d="M990 86.1772H792V-25.2152L990 86.1772Z" stroke="#7DD421" stroke-width="1.67089" stroke-linejoin="round"/>
<path d="M990 197.57L792 86.1772V197.57H990Z" stroke="#7DD421" stroke-width="1.67089" stroke-linejoin="round"/>
<path d="M1188 86.1772H990V197.57L1188 86.1772Z" stroke="#7DD421" stroke-width="1.67089" stroke-linejoin="round"/>
<path d="M1386 86.1772H1584L1386 -25.2152V86.1772Z" stroke="#7DD421" stroke-width="1.67089" stroke-linejoin="round"/>
<path d="M1386 -25.2152V86.1772H1188L1386 -25.2152Z" stroke="#7DD421" stroke-width="1.67089" stroke-linejoin="round"/>
<path d="M1188 86.1772L1386 197.57H1188V86.1772Z" stroke="#7DD421" stroke-width="1.67089" stroke-linejoin="round"/>
<path d="M1386 86.1772L1584 197.57H1386V86.1772Z" stroke="#7DD421" stroke-width="1.67089" stroke-linejoin="round"/>
<path d="M198 86.1772H396L198 -25.2152V86.1772Z" stroke="#7DD421" stroke-width="1.67089" stroke-linejoin="round"/>
<path d="M0 86.1772H198V-25.2152L0 86.1772Z" stroke="#7DD421" stroke-width="1.67089" stroke-linejoin="round"/>
<path d="M0 86.1772V197.57L198 86.1772H0Z" stroke="#7DD421" stroke-width="1.67089" stroke-linejoin="round"/>
<path d="M396 86.1772H198L396 197.57V86.1772Z" stroke="#7DD421" stroke-width="1.67089" stroke-linejoin="round"/>
<path d="M792 86.1772L594 -25.2152H792V86.1772Z" stroke="#7DD421" stroke-width="1.67089" stroke-linejoin="round"/>
<path d="M594 -25.2152H396L594 86.1772V-25.2152Z" stroke="#7DD421" stroke-width="1.67089" stroke-linejoin="round"/>
<path d="M396 86.1772H594L396 197.57V86.1772Z" stroke="#7DD421" stroke-width="1.67089" stroke-linejoin="round"/>
<path d="M792 86.1772V197.57H594L792 86.1772Z" stroke="#7DD421" stroke-width="1.67089" stroke-linejoin="round"/>
<path d="M792 308.962H594V197.57L792 308.962Z" stroke="#7DD421" stroke-width="1.67089" stroke-linejoin="round"/>
<path d="M396 197.57L594 308.962V197.57H396Z" stroke="#7DD421" stroke-width="1.67089" stroke-linejoin="round"/>
<path d="M594 308.962L396 420.354V308.962H594Z" stroke="#7DD421" stroke-width="1.67089" stroke-linejoin="round"/>
<path d="M594 420.354V308.962L792 420.354H594Z" stroke="#7DD421" stroke-width="1.67089" stroke-linejoin="round"/>
<path d="M0 197.57V420.354L396 197.57H0Z" stroke="#7DD421" stroke-width="1.67089" stroke-linejoin="round"/>
<path d="M1386 197.57H1584V308.962L1386 197.57Z" stroke="#7DD421" stroke-width="1.67089" stroke-linejoin="round"/>
<path d="M1386 197.57H1188L1386 308.962V197.57Z" stroke="#7DD421" stroke-width="1.67089" stroke-linejoin="round"/>
<path d="M1386 420.354L1188 308.962H1386V420.354Z" stroke="#7DD421" stroke-width="1.67089" stroke-linejoin="round"/>
<path d="M1584 420.354V308.962L1386 420.354H1584Z" stroke="#7DD421" stroke-width="1.67089" stroke-linejoin="round"/>
<path d="M990 197.57L1188 308.962H990V197.57Z" stroke="#7DD421" stroke-width="1.67089" stroke-linejoin="round"/>
<path d="M990 197.57V308.962H792L990 197.57Z" stroke="#7DD421" stroke-width="1.67089" stroke-linejoin="round"/>
<path d="M792 308.962L990 420.354H792V308.962Z" stroke="#7DD421" stroke-width="1.67089" stroke-linejoin="round"/>
<path d="M1188 308.962V420.354H990L1188 308.962Z" stroke="#7DD421" stroke-width="1.67089" stroke-linejoin="round"/>
</g>
<g filter="url(#filter0_f_5_13)">
<ellipse cx="799" cy="201.5" rx="601" ry="92.5" fill="#18181B"/>
</g>
<path d="M245.67 170.265H262.371L274.173 211.127L284.75 170.265H300.338L296.218 186.187L306.016 211.127L317.707 170.265H334.408L315.257 229.387H297.888L288.981 208.009L282.301 229.387H264.598L245.67 170.265ZM340.105 199.548C340.105 194.426 340.402 190.158 340.996 186.743C341.664 183.255 342.592 180.397 343.78 178.17C344.967 175.869 346.637 174.125 348.79 172.937C350.942 171.75 353.318 170.933 355.916 170.488C358.588 170.043 361.928 169.82 365.936 169.82C368.608 169.82 370.872 169.894 372.728 170.043C374.583 170.117 376.439 170.339 378.295 170.711C380.225 171.007 381.783 171.49 382.971 172.158C384.159 172.752 385.309 173.605 386.423 174.719C387.536 175.758 388.39 177.057 388.983 178.616C389.651 180.1 390.134 181.919 390.431 184.071C390.802 186.15 390.988 188.562 390.988 191.308C390.988 196.504 389.614 200.29 386.868 202.665C384.122 205.04 380.002 206.228 374.509 206.228H355.693C355.693 209.642 356.175 212.203 357.14 213.91C358.179 215.543 359.441 216.545 360.926 216.917C362.485 217.288 364.897 217.473 368.163 217.473C377.293 217.473 384.53 217.065 389.874 216.249V226.826C384.307 228.904 374.212 229.943 359.59 229.943C355.804 229.943 352.65 229.387 350.126 228.273C347.676 227.16 345.709 225.341 344.225 222.818C342.74 220.294 341.664 217.176 340.996 213.465C340.402 209.754 340.105 205.115 340.105 199.548ZM355.693 194.983H370.501C373.767 194.983 375.4 193.498 375.4 190.529C375.4 186.818 374.88 184.442 373.841 183.403C372.876 182.29 370.538 181.733 366.827 181.733C364.452 181.733 362.67 181.845 361.483 182.067C360.369 182.216 359.256 182.735 358.142 183.626C357.103 184.442 356.398 185.741 356.027 187.523C355.73 189.304 355.619 191.791 355.693 194.983ZM399.493 229.387V141.985H414.969V173.271C416.231 172.603 417.678 172.047 419.311 171.601C420.944 171.082 422.54 170.673 424.099 170.377C425.658 170.08 427.179 169.857 428.664 169.709C430.223 169.486 431.633 169.374 432.895 169.374C436.086 169.374 438.833 169.894 441.134 170.933C443.509 171.898 445.402 173.234 446.812 174.941C448.223 176.574 449.336 178.727 450.152 181.399C450.969 184.071 451.488 186.855 451.711 189.75C452.008 192.644 452.157 196.096 452.157 200.104C452.157 209.679 450.672 217.065 447.703 222.261C444.734 227.457 439.798 230.055 432.895 230.055C429.703 230.055 426.474 229.387 423.208 228.051C419.942 226.714 417.233 225.156 415.08 223.374L412.297 229.387H399.493ZM415.08 213.131C418.866 215.506 423.468 216.694 428.887 216.694C430.594 216.694 432.004 216.211 433.117 215.246C434.231 214.207 435.084 212.426 435.678 209.902C436.272 207.304 436.569 203.853 436.569 199.548C436.569 194.649 436.235 190.863 435.567 188.191C434.973 185.519 434.157 183.774 433.117 182.958C432.078 182.067 430.668 181.622 428.887 181.622C426.14 181.622 423.654 181.807 421.427 182.179C419.2 182.475 417.085 183.032 415.08 183.849V213.131ZM461.36 229.387V142.208H476.837V176.612C477.95 175.795 478.655 175.276 478.952 175.053C479.323 174.83 480.028 174.348 481.067 173.605C482.181 172.863 482.997 172.381 483.517 172.158C484.037 171.935 484.853 171.601 485.966 171.156C487.08 170.636 488.045 170.302 488.861 170.154C489.752 169.931 490.791 169.746 491.979 169.597C493.166 169.374 494.391 169.263 495.653 169.263C507.455 169.263 513.356 176.166 513.356 189.972V229.387H497.768V189.75C497.768 186.929 497.175 184.888 495.987 183.626C494.874 182.364 493.278 181.733 491.199 181.733C489.121 181.733 487.265 181.956 485.632 182.401C484.074 182.772 482.626 183.329 481.29 184.071C480.028 184.739 478.581 185.667 476.948 186.855V229.387H461.36ZM521.685 200.661C521.685 194.574 522.13 189.564 523.021 185.63C523.911 181.696 525.47 178.541 527.697 176.166C529.924 173.791 532.67 172.121 535.936 171.156C539.276 170.191 543.507 169.709 548.629 169.709C558.798 169.709 565.812 171.935 569.672 176.389C573.606 180.842 575.573 188.933 575.573 200.661C575.573 211.721 573.643 219.366 569.783 223.597C565.998 227.828 558.946 229.943 548.629 229.943C544.546 229.943 540.984 229.609 537.94 228.941C534.971 228.199 532.41 227.123 530.258 225.712C528.18 224.302 526.509 222.446 525.248 220.145C523.986 217.77 523.058 215.024 522.464 211.906C521.944 208.715 521.685 204.966 521.685 200.661ZM537.272 200.661C537.272 204.447 537.458 207.453 537.829 209.679C538.2 211.906 538.868 213.613 539.833 214.801C540.872 215.914 542.023 216.62 543.285 216.917C544.546 217.213 546.328 217.362 548.629 217.362C550.633 217.362 552.155 217.288 553.194 217.139C554.307 216.991 555.346 216.62 556.311 216.026C557.351 215.432 558.093 214.504 558.538 213.242C559.058 211.98 559.429 210.385 559.652 208.455C559.874 206.451 559.986 203.853 559.986 200.661C559.986 197.247 559.874 194.5 559.652 192.422C559.503 190.269 559.206 188.488 558.761 187.078C558.315 185.593 557.61 184.554 556.645 183.96C555.68 183.292 554.604 182.847 553.417 182.624C552.229 182.327 550.633 182.179 548.629 182.179C546.996 182.179 545.66 182.253 544.621 182.401C543.582 182.55 542.579 182.884 541.615 183.403C540.65 183.849 539.907 184.48 539.388 185.296C538.942 186.038 538.534 187.115 538.163 188.525C537.792 189.935 537.532 191.605 537.384 193.535C537.309 195.465 537.272 197.84 537.272 200.661ZM583.987 200.661C583.987 194.574 584.432 189.564 585.323 185.63C586.214 181.696 587.773 178.541 589.999 176.166C592.226 173.791 594.973 172.121 598.239 171.156C601.579 170.191 605.81 169.709 610.931 169.709C621.1 169.709 628.115 171.935 631.974 176.389C635.908 180.842 637.875 188.933 637.875 200.661C637.875 211.721 635.946 219.366 632.086 223.597C628.3 227.828 621.249 229.943 610.931 229.943C606.849 229.943 603.286 229.609 600.243 228.941C597.274 228.199 594.713 227.123 592.56 225.712C590.482 224.302 588.812 222.446 587.55 220.145C586.288 217.77 585.36 215.024 584.766 211.906C584.247 208.715 583.987 204.966 583.987 200.661ZM599.575 200.661C599.575 204.447 599.76 207.453 600.131 209.679C600.502 211.906 601.17 213.613 602.135 214.801C603.175 215.914 604.325 216.62 605.587 216.917C606.849 217.213 608.63 217.362 610.931 217.362C612.935 217.362 614.457 217.288 615.496 217.139C616.61 216.991 617.649 216.62 618.614 216.026C619.653 215.432 620.395 214.504 620.841 213.242C621.36 211.98 621.731 210.385 621.954 208.455C622.177 206.451 622.288 203.853 622.288 200.661C622.288 197.247 622.177 194.5 621.954 192.422C621.805 190.269 621.509 188.488 621.063 187.078C620.618 185.593 619.913 184.554 618.948 183.96C617.983 183.292 616.907 182.847 615.719 182.624C614.531 182.327 612.935 182.179 610.931 182.179C609.298 182.179 607.962 182.253 606.923 182.401C605.884 182.55 604.882 182.884 603.917 183.403C602.952 183.849 602.21 184.48 601.69 185.296C601.245 186.038 600.836 187.115 600.465 188.525C600.094 189.935 599.834 191.605 599.686 193.535C599.612 195.465 599.575 197.84 599.575 200.661ZM647.18 229.387V142.319H662.768V190.084H665.997L682.698 170.265H702.516L680.359 195.985L702.516 229.387H683.922L665.997 201.997H662.768V229.387H647.18ZM711.272 226.826V216.805C711.272 214.95 712.163 214.022 713.944 214.022H723.519C725.375 214.022 726.303 214.95 726.303 216.805V226.826C726.303 228.533 725.375 229.387 723.519 229.387H713.944C713.127 229.387 712.459 229.164 711.94 228.719C711.495 228.199 711.272 227.568 711.272 226.826Z" fill="#7CCF00"/>
<path d="M737.514 161.469V151.671C737.514 149.742 738.405 148.777 740.186 148.777H751.877C753.51 148.777 754.326 149.742 754.326 151.671V161.469C754.326 162.286 754.104 162.917 753.658 163.362C753.287 163.808 752.693 164.03 751.877 164.03H740.186C739.667 164.03 739.184 163.956 738.739 163.808C738.368 163.585 738.071 163.288 737.848 162.917C737.625 162.471 737.514 161.989 737.514 161.469ZM738.071 229.387V170.265H753.658V229.387H738.071ZM763.63 229.387V170.265H776.1L779.218 176.612C781.073 175.201 782.372 174.273 783.115 173.828C783.931 173.308 785.193 172.603 786.9 171.713C788.607 170.748 790.315 170.117 792.022 169.82C793.803 169.449 795.77 169.263 797.923 169.263C809.725 169.263 815.626 176.166 815.626 189.972V229.387H800.038V189.75C800.038 186.929 799.444 184.888 798.257 183.626C797.143 182.364 795.548 181.733 793.469 181.733C791.391 181.733 789.535 181.956 787.902 182.401C786.344 182.772 784.896 183.329 783.56 184.071C782.298 184.739 780.851 185.667 779.218 186.855V229.387H763.63ZM823.175 190.752V185.63C823.175 175.016 828.297 169.709 838.54 169.709C856.132 169.709 866.672 170.711 870.161 172.715V182.513H843.328C842.363 182.513 841.546 182.587 840.878 182.735C840.284 182.884 839.839 183.144 839.542 183.515C839.245 183.886 839.023 184.294 838.874 184.739C838.8 185.185 838.763 185.816 838.763 186.632V189.304C838.763 191.012 839.134 192.088 839.876 192.533C840.618 192.904 841.769 193.09 843.328 193.09H857.357C860.103 193.09 862.478 193.498 864.482 194.315C866.561 195.057 868.194 196.133 869.381 197.543C870.643 198.954 871.571 200.587 872.165 202.442C872.758 204.224 873.055 206.191 873.055 208.343V214.467C873.055 223.374 869.307 228.459 861.81 229.721C860.771 229.869 859.695 229.943 858.581 229.943C839.876 229.943 828.891 228.867 825.625 226.714V217.028H853.571C856.169 217.028 857.468 215.766 857.468 213.242V210.459C857.468 209.568 857.357 208.863 857.134 208.343C856.985 207.824 856.614 207.416 856.02 207.119C855.427 206.822 854.61 206.673 853.571 206.673H839.765C834.346 206.673 830.227 205.411 827.406 202.888C824.586 200.364 823.175 196.319 823.175 190.752ZM881.385 259.448V170.265H894.189L896.861 176.166C899.014 174.459 901.723 172.937 904.989 171.601C908.329 170.265 911.595 169.597 914.787 169.597C917.682 169.597 920.205 170.08 922.358 171.045C924.585 172.01 926.403 173.346 927.814 175.053C929.298 176.76 930.523 178.875 931.488 181.399C932.453 183.923 933.121 186.669 933.492 189.638C933.863 192.607 934.049 195.91 934.049 199.548C934.049 202.591 933.937 205.337 933.715 207.787C933.566 210.236 933.232 212.686 932.713 215.135C932.193 217.51 931.451 219.589 930.486 221.37C929.595 223.152 928.445 224.747 927.034 226.158C925.698 227.494 923.991 228.533 921.913 229.275C919.834 229.943 917.459 230.277 914.787 230.277C912.115 230.277 909.109 229.943 905.768 229.275C902.428 228.533 899.459 227.605 896.861 226.492V259.448H881.385ZM896.861 215.803C900.721 217.288 905.36 218.03 910.779 218.03C912.56 218.03 913.97 217.622 915.01 216.805C916.049 215.914 916.865 214.133 917.459 211.461C918.127 208.789 918.461 205.04 918.461 200.216C918.461 193.832 917.83 189.379 916.568 186.855C915.306 184.257 913.377 182.958 910.779 182.958C905.286 182.958 900.647 184.146 896.861 186.521V215.803ZM942.362 199.548C942.362 194.426 942.659 190.158 943.252 186.743C943.921 183.255 944.848 180.397 946.036 178.17C947.224 175.869 948.894 174.125 951.046 172.937C953.199 171.75 955.574 170.933 958.172 170.488C960.844 170.043 964.184 169.82 968.193 169.82C970.865 169.82 973.129 169.894 974.984 170.043C976.84 170.117 978.696 170.339 980.551 170.711C982.481 171.007 984.04 171.49 985.228 172.158C986.415 172.752 987.566 173.605 988.679 174.719C989.792 175.758 990.646 177.057 991.24 178.616C991.908 180.1 992.39 181.919 992.687 184.071C993.058 186.15 993.244 188.562 993.244 191.308C993.244 196.504 991.871 200.29 989.124 202.665C986.378 205.04 982.258 206.228 976.766 206.228H957.949C957.949 209.642 958.432 212.203 959.397 213.91C960.436 215.543 961.698 216.545 963.182 216.917C964.741 217.288 967.153 217.473 970.419 217.473C979.549 217.473 986.786 217.065 992.131 216.249V226.826C986.564 228.904 976.469 229.943 961.846 229.943C958.061 229.943 954.906 229.387 952.382 228.273C949.933 227.16 947.966 225.341 946.481 222.818C944.997 220.294 943.921 217.176 943.252 213.465C942.659 209.754 942.362 205.115 942.362 199.548ZM957.949 194.983H972.757C976.023 194.983 977.656 193.498 977.656 190.529C977.656 186.818 977.137 184.442 976.098 183.403C975.133 182.29 972.795 181.733 969.083 181.733C966.708 181.733 964.927 181.845 963.739 182.067C962.626 182.216 961.512 182.735 960.399 183.626C959.36 184.442 958.654 185.741 958.283 187.523C957.986 189.304 957.875 191.791 957.949 194.983ZM1000.86 199.77C1000.86 193.832 1001.3 188.859 1002.19 184.851C1003.16 180.768 1004.53 177.688 1006.31 175.61C1008.17 173.457 1010.21 171.935 1012.44 171.045C1014.66 170.154 1017.3 169.709 1020.34 169.709C1031.25 169.709 1040.31 170.859 1047.51 173.16V182.847C1040.46 182.401 1033.63 182.179 1027.02 182.179C1025.24 182.179 1023.91 182.253 1023.02 182.401C1022.2 182.55 1021.27 182.921 1020.23 183.515C1019.19 184.108 1018.45 185.036 1018 186.298C1017.56 187.56 1017.19 189.304 1016.89 191.531C1016.59 193.758 1016.45 196.616 1016.45 200.104C1016.45 205.152 1016.78 208.9 1017.45 211.35C1018.19 213.799 1019.23 215.432 1020.57 216.249C1021.98 216.991 1024.13 217.362 1027.02 217.362C1030.07 217.362 1033.37 217.288 1036.93 217.139C1040.5 216.991 1043.28 216.805 1045.28 216.583L1048.29 216.36V226.158C1046.66 226.974 1044.99 227.679 1043.28 228.273C1041.57 228.793 1039.49 229.164 1037.04 229.387C1034.67 229.609 1032.96 229.758 1031.92 229.832C1030.96 229.906 1028.88 229.943 1025.69 229.943C1022.5 229.943 1020.71 229.943 1020.34 229.943C1011.88 229.943 1006.24 226.084 1003.42 218.364C1001.71 213.688 1000.86 207.49 1000.86 199.77ZM1053.43 182.067V173.383L1063 170.154L1065.56 153.676H1078.59V170.154H1091.84V182.067H1078.59V205.783C1078.59 208.529 1078.81 210.756 1079.26 212.463C1079.7 214.096 1080.26 215.246 1080.93 215.914C1081.6 216.508 1082.49 217.028 1083.6 217.473C1088.05 219.032 1090.54 219.811 1091.06 219.811V229.387H1077.48C1072.87 229.387 1069.31 227.754 1066.79 224.488C1064.26 221.147 1063 215.729 1063 208.232V182.067H1053.43ZM1098.28 200.661C1098.28 194.574 1098.73 189.564 1099.62 185.63C1100.51 181.696 1102.07 178.541 1104.29 176.166C1106.52 173.791 1109.27 172.121 1112.53 171.156C1115.87 170.191 1120.1 169.709 1125.23 169.709C1135.39 169.709 1142.41 171.935 1146.27 176.389C1150.2 180.842 1152.17 188.933 1152.17 200.661C1152.17 211.721 1150.24 219.366 1146.38 223.597C1142.59 227.828 1135.54 229.943 1125.23 229.943C1121.14 229.943 1117.58 229.609 1114.54 228.941C1111.57 228.199 1109.01 227.123 1106.85 225.712C1104.78 224.302 1103.11 222.446 1101.84 220.145C1100.58 217.77 1099.65 215.024 1099.06 211.906C1098.54 208.715 1098.28 204.966 1098.28 200.661ZM1113.87 200.661C1113.87 204.447 1114.05 207.453 1114.43 209.679C1114.8 211.906 1115.46 213.613 1116.43 214.801C1117.47 215.914 1118.62 216.62 1119.88 216.917C1121.14 217.213 1122.92 217.362 1125.23 217.362C1127.23 217.362 1128.75 217.288 1129.79 217.139C1130.9 216.991 1131.94 216.62 1132.91 216.026C1133.95 215.432 1134.69 214.504 1135.13 213.242C1135.65 211.98 1136.02 210.385 1136.25 208.455C1136.47 206.451 1136.58 203.853 1136.58 200.661C1136.58 197.247 1136.47 194.5 1136.25 192.422C1136.1 190.269 1135.8 188.488 1135.36 187.078C1134.91 185.593 1134.21 184.554 1133.24 183.96C1132.28 183.292 1131.2 182.847 1130.01 182.624C1128.83 182.327 1127.23 182.179 1125.23 182.179C1123.59 182.179 1122.26 182.253 1121.22 182.401C1120.18 182.55 1119.18 182.884 1118.21 183.403C1117.25 183.849 1116.5 184.48 1115.98 185.296C1115.54 186.038 1115.13 187.115 1114.76 188.525C1114.39 189.935 1114.13 191.605 1113.98 193.535C1113.91 195.465 1113.87 197.84 1113.87 200.661ZM1161.47 229.387V170.265H1174.61L1177.06 177.725C1182.63 172.381 1188.27 169.709 1193.99 169.709C1197.18 169.709 1199.37 169.931 1200.55 170.377V185.407C1198.48 185.185 1195.62 185.073 1191.98 185.073C1188.49 185.073 1185.56 185.556 1183.19 186.521C1180.88 187.412 1178.84 189.119 1177.06 191.642V229.387H1161.47Z" fill="white"/>
<path d="M1255.63 249.875C1247.84 249.875 1241.21 247.131 1235.73 241.645C1230.25 236.159 1227.5 229.527 1227.5 221.75C1227.5 214.906 1229.63 208.93 1233.9 203.823C1238.17 198.715 1243.54 195.504 1250 194.187V205.859C1246.72 206.984 1244.03 209 1241.92 211.906C1239.81 214.812 1238.75 218.093 1238.75 221.75C1238.75 226.437 1240.39 230.421 1243.67 233.703C1246.95 236.984 1250.94 238.625 1255.63 238.625C1260.31 238.625 1264.3 236.984 1267.58 233.703C1270.86 230.421 1272.5 226.437 1272.5 221.75V216.125H1305.55C1306.3 215.281 1307.21 214.6 1308.29 214.083C1309.37 213.565 1310.57 213.308 1311.88 213.312C1314.22 213.312 1316.21 214.133 1317.85 215.776C1319.5 217.418 1320.32 219.41 1320.31 221.75C1320.31 224.09 1319.49 226.083 1317.85 227.729C1316.22 229.375 1314.23 230.195 1311.88 230.187C1310.56 230.187 1309.37 229.93 1308.29 229.416C1307.21 228.903 1306.3 228.222 1305.55 227.375H1283.19C1281.88 233.843 1278.66 239.211 1273.55 243.479C1268.44 247.746 1262.47 249.878 1255.63 249.875ZM1311.88 249.875C1306.63 249.875 1301.87 248.586 1297.61 246.01C1293.34 243.434 1289.99 240.035 1287.55 235.812H1302.59C1303.91 236.75 1305.36 237.453 1306.95 237.921C1308.55 238.39 1310.19 238.625 1311.88 238.625C1316.56 238.625 1320.55 236.984 1323.83 233.703C1327.11 230.421 1328.75 226.437 1328.75 221.75C1328.75 217.062 1327.11 213.078 1323.83 209.797C1320.55 206.515 1316.56 204.875 1311.88 204.875C1310 204.875 1308.27 205.133 1306.67 205.651C1305.08 206.168 1303.58 206.941 1302.17 207.968L1285.02 179.422C1283.05 179.047 1281.41 178.109 1280.09 176.609C1278.78 175.109 1278.13 173.281 1278.13 171.125C1278.13 168.781 1278.95 166.79 1280.59 165.151C1282.23 163.512 1284.22 162.691 1286.56 162.687C1288.9 162.684 1290.9 163.505 1292.54 165.151C1294.19 166.797 1295.01 168.789 1295 171.125V172.323C1295 172.649 1294.91 173.047 1294.72 173.515L1306.95 194.047C1307.7 193.859 1308.5 193.743 1309.34 193.698C1310.19 193.653 1311.03 193.629 1311.88 193.625C1319.66 193.625 1326.29 196.368 1331.78 201.854C1337.26 207.34 1340 213.972 1340 221.75C1340 229.527 1337.25 236.161 1331.77 241.651C1326.29 247.141 1319.66 249.882 1311.88 249.875ZM1255.63 230.187C1253.28 230.187 1251.29 229.368 1249.65 227.729C1248.01 226.09 1247.19 224.097 1247.19 221.75C1247.19 219.687 1247.84 217.906 1249.16 216.406C1250.47 214.906 1252.06 213.922 1253.94 213.453L1267.16 191.515C1264.44 188.984 1262.3 185.962 1260.76 182.448C1259.21 178.934 1258.43 175.16 1258.44 171.125C1258.44 163.344 1261.18 156.712 1266.67 151.229C1272.15 145.747 1278.79 143.004 1286.56 143C1294.34 142.996 1300.97 145.739 1306.46 151.229C1311.95 156.719 1314.7 163.351 1314.69 171.125H1303.44C1303.44 166.437 1301.8 162.453 1298.52 159.172C1295.24 155.891 1291.25 154.25 1286.56 154.25C1281.88 154.25 1277.89 155.891 1274.61 159.172C1271.33 162.453 1269.69 166.437 1269.69 171.125C1269.69 175.156 1270.91 178.696 1273.34 181.745C1275.78 184.794 1278.88 186.738 1282.63 187.578L1263.64 219.218C1263.83 219.687 1263.95 220.109 1264 220.484C1264.04 220.859 1264.07 221.281 1264.06 221.75C1264.06 224.093 1263.24 226.086 1261.61 227.729C1259.97 229.371 1257.97 230.191 1255.63 230.187Z" fill="#7CCF00"/>
</g>
<defs>
<filter id="filter0_f_5_13" x="157.9" y="68.9" width="1282.2" height="265.2" filterUnits="userSpaceOnUse" color-interpolation-filters="sRGB">
<feFlood flood-opacity="0" result="BackgroundImageFix"/>
<feBlend mode="normal" in="SourceGraphic" in2="BackgroundImageFix" result="shape"/>
<feGaussianBlur stdDeviation="20.05" result="effect1_foregroundBlur_5_13"/>
</filter>
<clipPath id="clip0_5_13">
<rect width="1584" height="396" rx="8" fill="white"/>
</clipPath>
<clipPath id="clip1_5_13">
<rect width="1584" height="891.139" fill="white" transform="translate(0 -248)"/>
</clipPath>
</defs>
</svg>
