<svg width="1260" height="180" viewBox="0 0 1260 180" fill="none" xmlns="http://www.w3.org/2000/svg">
<path d="M45.786 60.1888H63.6461L76.2672 103.886L87.5786 60.1888H104.248L99.8425 77.2154L110.32 103.886L122.822 60.1888H140.683L120.203 123.413H101.628L92.1031 100.553L84.9591 123.413H66.0274L45.786 60.1888ZM146.775 91.5034C146.775 86.0263 147.093 81.4621 147.728 77.8107C148.442 74.0799 149.435 71.0239 150.705 68.6425C151.975 66.1818 153.761 64.3164 156.063 63.0464C158.365 61.7763 160.905 60.9032 163.683 60.4269C166.541 59.9506 170.113 59.7125 174.399 59.7125C177.257 59.7125 179.678 59.7919 181.662 59.9506C183.647 60.03 185.631 60.2682 187.615 60.665C189.679 60.9826 191.346 61.4985 192.616 62.2129C193.886 62.8479 195.117 63.7608 196.307 64.9515C197.498 66.0628 198.411 67.4519 199.046 69.1188C199.76 70.7064 200.276 72.6511 200.594 74.9531C200.991 77.1757 201.189 79.7555 201.189 82.6925C201.189 88.2489 199.721 92.2972 196.784 94.8373C193.847 97.3774 189.441 98.6475 183.567 98.6475H163.445C163.445 102.299 163.961 105.037 164.993 106.863C166.104 108.609 167.453 109.681 169.041 110.078C170.708 110.475 173.288 110.673 176.78 110.673C186.544 110.673 194.283 110.237 199.998 109.364V120.675C194.045 122.897 183.25 124.009 167.612 124.009C163.564 124.009 160.19 123.413 157.491 122.223C154.872 121.032 152.768 119.087 151.181 116.388C149.593 113.69 148.442 110.356 147.728 106.387C147.093 102.418 146.775 97.4568 146.775 91.5034ZM163.445 86.6217H179.281C182.773 86.6217 184.52 85.0341 184.52 81.859C184.52 77.8901 183.964 75.35 182.853 74.2387C181.821 73.048 179.32 72.4527 175.352 72.4527C172.811 72.4527 170.906 72.5718 169.636 72.8099C168.446 72.9687 167.255 73.5243 166.064 74.4768C164.953 75.35 164.199 76.7391 163.802 78.6442C163.484 80.5493 163.365 83.2084 163.445 86.6217ZM210.285 123.413V29.9457H226.835V63.4036C228.184 62.6892 229.732 62.0938 231.479 61.6176C233.225 61.0619 234.932 60.6254 236.599 60.3078C238.265 59.9903 239.893 59.7522 241.48 59.5934C243.147 59.3553 244.655 59.2362 246.005 59.2362C249.418 59.2362 252.355 59.7919 254.816 60.9032C257.356 61.9351 259.38 63.3639 260.888 65.1896C262.396 66.9359 263.587 69.2379 264.46 72.0955C265.333 74.9531 265.889 77.9298 266.127 81.0255C266.445 84.1213 266.603 87.8124 266.603 92.0988C266.603 102.339 265.016 110.237 261.841 115.793C258.666 121.35 253.387 124.128 246.005 124.128C242.592 124.128 239.139 123.413 235.646 121.985C232.153 120.556 229.256 118.889 226.954 116.984L223.977 123.413H210.285ZM226.954 106.03C231.002 108.57 235.924 109.84 241.718 109.84C243.544 109.84 245.052 109.324 246.243 108.292C247.434 107.181 248.346 105.276 248.982 102.577C249.617 99.7984 249.934 96.1074 249.934 91.5034C249.934 86.2645 249.577 82.2162 248.862 79.3586C248.227 76.501 247.354 74.6356 246.243 73.7624C245.132 72.8099 243.624 72.3336 241.718 72.3336C238.781 72.3336 236.122 72.5321 233.741 72.929C231.36 73.2465 229.097 73.8418 226.954 74.715V106.03ZM276.446 123.413V30.1839H292.996V66.9756C294.187 66.1024 294.941 65.5468 295.259 65.3087C295.656 65.0705 296.41 64.5546 297.521 63.7608C298.712 62.967 299.585 62.4511 300.14 62.2129C300.696 61.9748 301.569 61.6176 302.76 61.1413C303.951 60.5857 304.982 60.2285 305.856 60.0697C306.808 59.8316 307.919 59.6331 309.189 59.4744C310.46 59.2362 311.769 59.1172 313.119 59.1172C325.74 59.1172 332.05 66.4993 332.05 81.2637V123.413H315.381V81.0255C315.381 78.0092 314.746 75.8263 313.476 74.4768C312.285 73.1274 310.579 72.4527 308.356 72.4527C306.133 72.4527 304.149 72.6908 302.403 73.1671C300.736 73.564 299.188 74.1593 297.759 74.9531C296.41 75.6675 294.862 76.6597 293.115 77.9298V123.413H276.446ZM340.957 92.6941C340.957 86.1851 341.433 80.8271 342.386 76.62C343.338 72.413 345.005 69.0394 347.387 66.4993C349.768 63.9592 352.705 62.1732 356.198 61.1413C359.77 60.1094 364.294 59.5934 369.771 59.5934C380.646 59.5934 388.147 61.9748 392.275 66.7375C396.482 71.5002 398.586 80.1524 398.586 92.6941C398.586 104.521 396.522 112.697 392.394 117.222C388.346 121.746 380.805 124.009 369.771 124.009C365.406 124.009 361.595 123.652 358.341 122.937C355.166 122.143 352.427 120.992 350.125 119.484C347.903 117.976 346.117 115.992 344.767 113.531C343.418 110.991 342.426 108.054 341.791 104.72C341.235 101.307 340.957 97.298 340.957 92.6941ZM357.627 92.6941C357.627 96.7424 357.825 99.9572 358.222 102.339C358.619 104.72 359.333 106.546 360.365 107.816C361.476 109.006 362.707 109.76 364.056 110.078C365.406 110.395 367.311 110.554 369.771 110.554C371.915 110.554 373.542 110.475 374.653 110.316C375.844 110.157 376.955 109.76 377.987 109.125C379.098 108.49 379.892 107.498 380.368 106.149C380.924 104.799 381.321 103.093 381.559 101.029C381.797 98.8856 381.916 96.1074 381.916 92.6941C381.916 89.0427 381.797 86.1057 381.559 83.8831C381.4 81.5812 381.083 79.6761 380.607 78.1679C380.13 76.5804 379.376 75.4691 378.344 74.834C377.312 74.1196 376.161 73.6434 374.891 73.4052C373.621 73.0877 371.915 72.929 369.771 72.929C368.025 72.929 366.596 73.0083 365.485 73.1671C364.374 73.3259 363.302 73.6831 362.27 74.2387C361.238 74.715 360.444 75.3897 359.889 76.2628C359.413 77.0566 358.976 78.2076 358.579 79.7158C358.182 81.224 357.904 83.01 357.746 85.0738C357.666 87.1376 357.627 89.6777 357.627 92.6941ZM407.584 92.6941C407.584 86.1851 408.06 80.8271 409.012 76.62C409.965 72.413 411.632 69.0394 414.013 66.4993C416.395 63.9592 419.332 62.1732 422.824 61.1413C426.396 60.1094 430.921 59.5934 436.398 59.5934C447.273 59.5934 454.774 61.9748 458.902 66.7375C463.109 71.5002 465.212 80.1524 465.212 92.6941C465.212 104.521 463.148 112.697 459.021 117.222C454.972 121.746 447.431 124.009 436.398 124.009C432.032 124.009 428.222 123.652 424.967 122.937C421.792 122.143 419.054 120.992 416.752 119.484C414.529 117.976 412.743 115.992 411.394 113.531C410.044 110.991 409.052 108.054 408.417 104.72C407.861 101.307 407.584 97.298 407.584 92.6941ZM424.253 92.6941C424.253 96.7424 424.451 99.9572 424.848 102.339C425.245 104.72 425.96 106.546 426.992 107.816C428.103 109.006 429.333 109.76 430.683 110.078C432.032 110.395 433.937 110.554 436.398 110.554C438.541 110.554 440.168 110.475 441.28 110.316C442.47 110.157 443.582 109.76 444.613 109.125C445.725 108.49 446.519 107.498 446.995 106.149C447.55 104.799 447.947 103.093 448.185 101.029C448.424 98.8856 448.543 96.1074 448.543 92.6941C448.543 89.0427 448.424 86.1057 448.185 83.8831C448.027 81.5812 447.709 79.6761 447.233 78.1679C446.757 76.5804 446.003 75.4691 444.971 74.834C443.939 74.1196 442.788 73.6434 441.518 73.4052C440.248 73.0877 438.541 72.929 436.398 72.929C434.652 72.929 433.223 73.0083 432.111 73.1671C431 73.3259 429.929 73.6831 428.897 74.2387C427.865 74.715 427.071 75.3897 426.515 76.2628C426.039 77.0566 425.602 78.2076 425.206 79.7158C424.809 81.224 424.531 83.01 424.372 85.0738C424.293 87.1376 424.253 89.6777 424.253 92.6941ZM475.163 123.413V30.3029H491.832V81.3827H495.285L513.145 60.1888H534.339L510.645 87.6933L534.339 123.413H514.455L495.285 94.1229H491.832V123.413H475.163ZM543.702 120.675V109.959C543.702 107.974 544.655 106.982 546.56 106.982H556.8C558.784 106.982 559.777 107.974 559.777 109.959V120.675C559.777 122.501 558.784 123.413 556.8 123.413H546.56C545.687 123.413 544.973 123.175 544.417 122.699C543.941 122.143 543.702 121.469 543.702 120.675Z" fill="#9AE600"/>
<path d="M571.766 50.7825V40.3046C571.766 38.2407 572.719 37.2088 574.624 37.2088H587.126C588.872 37.2088 589.745 38.2407 589.745 40.3046V50.7825C589.745 51.6556 589.507 52.3303 589.031 52.8066C588.634 53.2829 587.999 53.521 587.126 53.521H574.624C574.068 53.521 573.552 53.4416 573.076 53.2829C572.679 53.0447 572.361 52.7272 572.123 52.3303C571.885 51.8541 571.766 51.3381 571.766 50.7825ZM572.361 123.413V60.1888H589.031V123.413H572.361ZM599.695 123.413V60.1888H613.03L616.364 66.9756C618.349 65.4674 619.738 64.4752 620.531 63.9989C621.405 63.4433 622.754 62.6892 624.58 61.7367C626.405 60.7047 628.231 60.03 630.057 59.7125C631.962 59.3156 634.065 59.1172 636.367 59.1172C648.988 59.1172 655.299 66.4993 655.299 81.2637V123.413H638.63V81.0255C638.63 78.0092 637.995 75.8263 636.725 74.4768C635.534 73.1274 633.827 72.4527 631.605 72.4527C629.382 72.4527 627.398 72.6908 625.651 73.1671C623.984 73.564 622.437 74.1593 621.008 74.9531C619.658 75.6675 618.11 76.6597 616.364 77.9298V123.413H599.695ZM663.372 82.0971V76.62C663.372 65.269 668.849 59.5934 679.804 59.5934C698.616 59.5934 709.888 60.665 713.619 62.8083V73.2862H684.924C683.892 73.2862 683.018 73.3655 682.304 73.5243C681.669 73.6831 681.193 73.9609 680.875 74.3578C680.558 74.7547 680.32 75.1912 680.161 75.6675C680.081 76.1438 680.042 76.8185 680.042 77.6916V80.5493C680.042 82.375 680.439 83.5259 681.232 84.0022C682.026 84.3991 683.257 84.5975 684.924 84.5975H699.926C702.863 84.5975 705.403 85.0341 707.546 85.9073C709.769 86.7011 711.515 87.852 712.785 89.3602C714.135 90.8684 715.127 92.6147 715.762 94.5992C716.397 96.5043 716.714 98.6078 716.714 100.91V107.458C716.714 116.984 712.706 122.421 704.689 123.771C703.577 123.929 702.426 124.009 701.236 124.009C681.232 124.009 669.484 122.858 665.992 120.556V110.197H695.878C698.656 110.197 700.045 108.848 700.045 106.149V103.172C700.045 102.219 699.926 101.465 699.688 100.91C699.529 100.354 699.132 99.9175 698.497 99.6C697.862 99.2825 696.989 99.1237 695.878 99.1237H681.113C675.319 99.1237 670.913 97.7743 667.897 95.0754C664.881 92.3766 663.372 88.0505 663.372 82.0971ZM725.622 155.562V60.1888H739.315L742.173 66.4993C744.474 64.6736 747.372 63.0464 750.864 61.6176C754.436 60.1888 757.929 59.4744 761.342 59.4744C764.438 59.4744 767.137 59.9903 769.439 61.0222C771.82 62.0542 773.765 63.483 775.273 65.3087C776.861 67.1344 778.17 69.3966 779.202 72.0955C780.234 74.7943 780.949 77.7313 781.346 80.9065C781.742 84.0816 781.941 87.6139 781.941 91.5034C781.941 94.7579 781.822 97.6949 781.584 100.314C781.425 102.934 781.068 105.553 780.512 108.173C779.956 110.713 779.163 112.936 778.131 114.841C777.178 116.746 775.948 118.452 774.44 119.96C773.011 121.389 771.185 122.501 768.963 123.294C766.74 124.009 764.2 124.366 761.342 124.366C758.485 124.366 755.27 124.009 751.698 123.294C748.126 122.501 744.951 121.508 742.173 120.318V155.562H725.622ZM742.173 108.887C746.3 110.475 751.261 111.269 757.056 111.269C758.961 111.269 760.469 110.832 761.58 109.959C762.692 109.006 763.565 107.101 764.2 104.244C764.914 101.386 765.272 97.3774 765.272 92.2178C765.272 85.3913 764.597 80.6286 763.247 77.9298C761.898 75.1515 759.834 73.7624 757.056 73.7624C751.182 73.7624 746.221 75.0325 742.173 77.5726V108.887ZM790.831 91.5034C790.831 86.0263 791.148 81.4621 791.783 77.8107C792.498 74.0799 793.49 71.0239 794.76 68.6425C796.03 66.1818 797.816 64.3164 800.118 63.0464C802.42 61.7763 804.96 60.9032 807.738 60.4269C810.596 59.9506 814.168 59.7125 818.455 59.7125C821.312 59.7125 823.733 59.7919 825.718 59.9506C827.702 60.03 829.687 60.2682 831.671 60.665C833.735 60.9826 835.402 61.4985 836.672 62.2129C837.942 62.8479 839.172 63.7608 840.363 64.9515C841.554 66.0628 842.466 67.4519 843.101 69.1188C843.816 70.7064 844.332 72.6511 844.649 74.9531C845.046 77.1757 845.245 79.7555 845.245 82.6925C845.245 88.2489 843.776 92.2972 840.839 94.8373C837.902 97.3774 833.497 98.6475 827.623 98.6475H807.5C807.5 102.299 808.016 105.037 809.048 106.863C810.16 108.609 811.509 109.681 813.097 110.078C814.763 110.475 817.343 110.673 820.836 110.673C830.599 110.673 838.339 110.237 844.054 109.364V120.675C838.101 122.897 827.305 124.009 811.668 124.009C807.619 124.009 804.246 123.413 801.547 122.223C798.928 121.032 796.824 119.087 795.236 116.388C793.649 113.69 792.498 110.356 791.783 106.387C791.148 102.418 790.831 97.4568 790.831 91.5034ZM807.5 86.6217H823.336C826.829 86.6217 828.575 85.0341 828.575 81.859C828.575 77.8901 828.02 75.35 826.908 74.2387C825.876 73.048 823.376 72.4527 819.407 72.4527C816.867 72.4527 814.962 72.5718 813.692 72.8099C812.501 72.9687 811.311 73.5243 810.12 74.4768C809.009 75.35 808.254 76.7391 807.858 78.6442C807.54 80.5493 807.421 83.2084 807.5 86.6217ZM853.388 91.7416C853.388 85.3913 853.864 80.073 854.817 75.7866C855.848 71.4208 857.317 68.1266 859.222 65.904C861.206 63.602 863.389 61.9748 865.771 61.0222C868.152 60.0697 870.97 59.5934 874.224 59.5934C885.893 59.5934 895.577 60.8238 903.277 63.2845V73.6434C895.736 73.1671 888.433 72.929 881.369 72.929C879.463 72.929 878.035 73.0083 877.082 73.1671C876.209 73.3259 875.217 73.7227 874.105 74.3578C872.994 74.9928 872.2 75.985 871.724 77.3344C871.248 78.6839 870.851 80.5493 870.533 82.9306C870.216 85.3119 870.057 88.368 870.057 92.0988C870.057 97.4965 870.414 101.505 871.129 104.125C871.923 106.744 873.034 108.49 874.463 109.364C875.971 110.157 878.273 110.554 881.369 110.554C884.623 110.554 888.155 110.475 891.965 110.316C895.776 110.157 898.752 109.959 900.896 109.721L904.11 109.483V119.96C902.364 120.834 900.578 121.588 898.752 122.223C896.927 122.778 894.704 123.175 892.085 123.413C889.544 123.652 887.719 123.81 886.607 123.89C885.576 123.969 883.353 124.009 879.94 124.009C876.526 124.009 874.621 124.009 874.224 124.009C865.175 124.009 859.143 119.881 856.126 111.626C854.301 106.625 853.388 99.9969 853.388 91.7416ZM909.604 72.8099V63.5227L919.844 60.0697L922.582 42.4478H936.513V60.0697H950.682V72.8099H936.513V98.1712C936.513 101.108 936.751 103.49 937.228 105.315C937.704 107.062 938.299 108.292 939.014 109.006C939.728 109.641 940.681 110.197 941.871 110.673C946.634 112.34 949.293 113.174 949.849 113.174V123.413H935.323C930.401 123.413 926.591 121.667 923.892 118.174C921.193 114.602 919.844 108.808 919.844 100.791V72.8099H909.604ZM957.571 92.6941C957.571 86.1851 958.048 80.8271 959 76.62C959.953 72.413 961.62 69.0394 964.001 66.4993C966.382 63.9592 969.319 62.1732 972.812 61.1413C976.384 60.1094 980.909 59.5934 986.386 59.5934C997.26 59.5934 1004.76 61.9748 1008.89 66.7375C1013.1 71.5002 1015.2 80.1524 1015.2 92.6941C1015.2 104.521 1013.14 112.697 1009.01 117.222C1004.96 121.746 997.419 124.009 986.386 124.009C982.02 124.009 978.21 123.652 974.955 122.937C971.78 122.143 969.042 120.992 966.74 119.484C964.517 117.976 962.731 115.992 961.382 113.531C960.032 110.991 959.04 108.054 958.405 104.72C957.849 101.307 957.571 97.298 957.571 92.6941ZM974.241 92.6941C974.241 96.7424 974.439 99.9572 974.836 102.339C975.233 104.72 975.947 106.546 976.979 107.816C978.091 109.006 979.321 109.76 980.67 110.078C982.02 110.395 983.925 110.554 986.386 110.554C988.529 110.554 990.156 110.475 991.267 110.316C992.458 110.157 993.569 109.76 994.601 109.125C995.713 108.49 996.506 107.498 996.983 106.149C997.538 104.799 997.935 103.093 998.173 101.029C998.411 98.8856 998.531 96.1074 998.531 92.6941C998.531 89.0427 998.411 86.1057 998.173 83.8831C998.015 81.5812 997.697 79.6761 997.221 78.1679C996.745 76.5804 995.99 75.4691 994.959 74.834C993.927 74.1196 992.776 73.6434 991.506 73.4052C990.236 73.0877 988.529 72.929 986.386 72.929C984.639 72.929 983.211 73.0083 982.099 73.1671C980.988 73.3259 979.916 73.6831 978.884 74.2387C977.853 74.715 977.059 75.3897 976.503 76.2628C976.027 77.0566 975.59 78.2076 975.193 79.7158C974.796 81.224 974.519 83.01 974.36 85.0738C974.281 87.1376 974.241 89.6777 974.241 92.6941ZM1025.15 123.413V60.1888H1039.2L1041.82 68.1663C1047.77 62.4511 1053.81 59.5934 1059.92 59.5934C1063.33 59.5934 1065.67 59.8316 1066.94 60.3078V76.3819C1064.72 76.1438 1061.66 76.0247 1057.77 76.0247C1054.04 76.0247 1050.91 76.5407 1048.37 77.5726C1045.91 78.5251 1043.72 80.3508 1041.82 83.0497V123.413H1025.15Z" fill="white"/>
<path d="M1125.84 145.292C1117.52 145.292 1110.42 142.359 1104.56 136.492C1098.7 130.625 1095.76 123.532 1095.76 115.215C1095.76 107.897 1098.04 101.506 1102.61 96.0442C1107.17 90.5823 1112.91 87.1475 1119.82 85.7399V98.2218C1116.31 99.4249 1113.43 101.58 1111.18 104.688C1108.92 107.796 1107.79 111.305 1107.79 115.215C1107.79 120.228 1109.54 124.489 1113.05 127.998C1116.56 131.507 1120.82 133.261 1125.84 133.261C1130.85 133.261 1135.11 131.507 1138.62 127.998C1142.13 124.489 1143.88 120.228 1143.88 115.215V109.2H1179.22C1180.02 108.298 1181 107.57 1182.16 107.016C1183.31 106.463 1184.59 106.188 1185.99 106.192C1188.5 106.192 1190.63 107.07 1192.38 108.827C1194.14 110.583 1195.02 112.713 1195.01 115.215C1195.01 117.718 1194.13 119.849 1192.38 121.61C1190.64 123.37 1188.5 124.246 1185.99 124.238C1184.59 124.238 1183.31 123.964 1182.15 123.414C1181 122.865 1180.02 122.137 1179.23 121.231H1155.31C1153.91 128.148 1150.47 133.889 1145.01 138.453C1139.54 143.016 1133.15 145.296 1125.84 145.292ZM1185.99 145.292C1180.38 145.292 1175.29 143.915 1170.73 141.159C1166.17 138.404 1162.58 134.769 1159.97 130.254H1176.06C1177.47 131.256 1179.02 132.008 1180.73 132.509C1182.43 133.011 1184.19 133.261 1185.99 133.261C1191 133.261 1195.26 131.507 1198.77 127.998C1202.28 124.489 1204.04 120.228 1204.04 115.215C1204.04 110.202 1202.28 105.942 1198.77 102.433C1195.26 98.9236 1191 97.1691 1185.99 97.1691C1183.99 97.1691 1182.13 97.4458 1180.43 97.9992C1178.72 98.5526 1177.12 99.3787 1175.61 100.478L1157.27 69.9495C1155.16 69.5485 1153.41 68.5459 1152 66.9418C1150.6 65.3377 1149.9 63.3828 1149.9 61.0769C1149.9 58.5705 1150.78 56.441 1152.53 54.6885C1154.29 52.9361 1156.42 52.0578 1158.92 52.0538C1161.42 52.0498 1163.55 52.928 1165.32 54.6885C1167.08 56.449 1167.95 58.5785 1167.94 61.0769V62.3581C1167.94 62.707 1167.84 63.1321 1167.64 63.6334L1180.73 85.5895C1181.53 85.389 1182.38 85.2647 1183.28 85.2165C1184.19 85.1684 1185.09 85.1424 1185.99 85.1383C1194.31 85.1383 1201.41 88.0718 1207.27 93.9388C1213.14 99.8058 1216.07 106.898 1216.07 115.215C1216.06 123.532 1213.13 130.627 1207.27 136.498C1201.4 142.369 1194.31 145.3 1185.99 145.292ZM1125.84 124.238C1123.33 124.238 1121.2 123.362 1119.45 121.61C1117.7 119.857 1116.82 117.726 1116.81 115.215C1116.81 113.01 1117.52 111.105 1118.92 109.501C1120.32 107.897 1122.03 106.844 1124.03 106.343L1138.17 82.8826C1135.26 80.1757 1132.98 76.9434 1131.32 73.1858C1129.67 69.4282 1128.84 65.3919 1128.84 61.0769C1128.84 52.7556 1131.78 45.6635 1137.64 39.8005C1143.51 33.9375 1150.6 31.004 1158.92 31C1167.24 30.996 1174.33 33.9295 1180.2 39.8005C1186.07 45.6715 1189.01 52.7636 1189 61.0769H1176.97C1176.97 56.0641 1175.21 51.8032 1171.7 48.2942C1168.19 44.7852 1163.93 43.0307 1158.92 43.0307C1153.91 43.0307 1149.65 44.7852 1146.14 48.2942C1142.63 51.8032 1140.87 56.0641 1140.87 61.0769C1140.87 65.3879 1142.18 69.1735 1144.78 72.4339C1147.39 75.6942 1150.7 77.7735 1154.71 78.6718L1134.41 112.508C1134.61 113.01 1134.74 113.461 1134.79 113.862C1134.84 114.263 1134.86 114.714 1134.86 115.215C1134.86 117.722 1133.98 119.853 1132.23 121.61C1130.48 123.366 1128.35 124.242 1125.84 124.238Z" fill="#9AE600"/>
</svg>
